<svg xmlns="http://www.w3.org/2000/svg" width="88" height="80" viewBox="0 0 88 80" fill="none">
  <path fill-rule="evenodd" clip-rule="evenodd" d="M52.9494 1.32249C48.8553 9.3254 39.1374 29.5168 39.1671 29.9603C39.2354 30.9874 41.0373 33.8773 41.3199 33.4124C41.5615 33.0143 49.0203 17.747 52.018 11.5143C52.7036 10.089 53.406 8.97167 53.5789 9.03126C53.9002 9.14127 73.8681 49.8052 74.3326 51.2951L74.5881 52.114H65.7448C58.917 52.114 56.9032 52.2229 56.9077 52.5916C56.9111 52.8543 57.2964 53.7566 57.7639 54.597L58.6139 56.125L69.4591 56.2267C75.4238 56.2824 80.4279 56.1965 80.5787 56.0357C80.7296 55.8748 74.727 43.2008 67.2397 27.8715L53.6263 0L52.9494 1.32249ZM16.8551 37.3848C11.8687 47.5407 7.8916 55.9546 8.01767 56.083C8.31749 56.3882 26.6528 56.386 28.843 56.0803C30.3912 55.8642 30.5946 55.706 31.2835 54.1822C31.6966 53.2677 31.9451 52.4284 31.8355 52.3169C31.7259 52.2053 27.6962 52.114 22.8806 52.114C18.0652 52.114 14.1253 52.0327 14.1253 51.9329C14.1253 51.2255 25.8711 27.6924 26.1398 27.8615C26.3275 27.9797 30.4442 36.235 35.2876 46.2071C40.1311 56.1793 44.232 64.3338 44.4004 64.3285C44.7561 64.3178 58.7819 35.51 58.7696 34.8155C58.7553 34.0094 57.3302 31.104 56.9489 31.104C56.7486 31.104 53.9166 36.6063 50.6559 43.3315C47.3956 50.0566 44.5629 55.5031 44.361 55.4348C44.1596 55.3663 40.0177 47.2087 35.1573 37.307C30.2971 27.4051 26.2306 19.2172 26.1211 19.1118C26.0115 19.0064 21.8419 27.2293 16.8551 37.3848ZM7.14527 63.5301C3.68188 64.442 0.561087 67.4987 0.100678 70.4306C-0.285809 72.8917 0.429379 74.8797 2.43799 76.9241C3.87626 78.3884 4.67399 78.8532 6.71525 79.4156C9.72498 80.2449 11.9587 80.0341 14.7257 78.6589C15.7779 78.1358 16.749 77.708 16.8833 77.708C17.0173 77.708 17.1272 78.2347 17.1272 78.8782C17.1272 79.9683 17.2105 80.0402 18.3466 79.9285L19.5661 79.809L19.6724 75.5035C19.7309 73.1355 19.6067 70.5478 19.3962 69.7532C18.8747 67.781 16.7545 65.3667 14.666 64.3674C12.7767 63.4632 8.99704 63.0422 7.14527 63.5301ZM29.8851 63.4475C27.2637 64.3559 24.6543 66.63 23.9038 68.6603C23.6851 69.2517 23.5061 71.9479 23.5061 74.6513C23.5061 79.2693 23.5526 79.5817 24.2746 79.8148C25.8416 80.3214 26.1328 79.4775 26.1328 74.4305V69.7181L27.5398 68.2165C30.3938 65.1704 34.8922 65.1437 37.85 68.155L39.2657 69.5963V74.1978C39.2657 78.9282 39.5802 80 40.9679 80C42.0463 80 42.3595 78.4453 42.1915 73.9247C42.0587 70.3476 41.8702 69.1867 41.2129 67.8936C40.291 66.081 38.4343 64.4913 36.3585 63.7372C34.9825 63.2371 31.0051 63.0591 29.8851 63.4475ZM52.2315 63.4697C51.2056 63.7357 48.9885 65.2228 48.008 66.3031C46.4109 68.0625 46.02 69.7341 46.02 74.8048C46.02 79.2681 46.068 79.5821 46.7885 79.8148C48.3178 80.309 48.6465 79.448 48.6465 74.9495C48.6465 70.0775 49.1419 68.5927 51.238 67.1828C53.0207 65.9832 56.2513 65.6001 58.0273 66.3776C61.3002 67.81 62.1549 69.6741 62.1549 75.3778C62.1549 79.2639 62.2104 79.5845 62.9234 79.8148C64.4787 80.3175 64.7814 79.468 64.7814 74.6012C64.7814 70.7751 64.6565 69.7891 63.9886 68.3426C62.4783 65.0715 59.3043 63.187 55.4008 63.2448C54.0592 63.2646 52.633 63.3658 52.2315 63.4697ZM74.6621 63.8758C70.7578 65.2965 68.5338 68.1203 68.5338 71.6563C68.5338 76.9169 74.3691 80.8875 80.2954 79.6593C81.5655 79.3961 83.1633 78.8495 83.8459 78.4446C85.4057 77.5189 85.3468 77.5078 85.4882 78.7585C85.5881 79.6444 85.7836 79.809 86.7325 79.809H87.8583L87.9738 75.2251C88.11 69.8041 87.7595 68.3265 85.8826 66.4104C83.0789 63.5477 78.4422 62.5002 74.6621 63.8758ZM14.3914 67.5079C17.5868 69.7624 17.6138 73.4105 14.4518 75.6414C11.1906 77.9422 6.76703 77.5147 4.22822 74.654C2.62336 72.8459 2.43162 71.0689 3.62785 69.0978C4.83422 67.1109 7.04095 66.1842 10.224 66.3279C12.4101 66.4263 13.1591 66.6388 14.3914 67.5079ZM83.0789 67.6546C83.85 68.2876 84.6838 69.4205 84.9318 70.1731C86.7104 75.5745 78.483 79.4252 73.4741 75.5356C70.1657 72.9667 70.7316 69.0252 74.7251 66.8244C75.5732 66.3572 76.5693 66.2411 78.7637 66.3542C81.3262 66.486 81.8447 66.6426 83.0789 67.6546Z" fill="white"/>
</svg>